Coordinates
version=1
nRows=8
nColumns=40
inDegrees=yes

Units are S.I. units (second, meters, Newtons, ...)
Angles are in degrees.

endheader
time	pelvis_tilt	pelvis_list	pelvis_rotation	pelvis_tx	pelvis_ty	pelvis_tz	hip_flexion_r	hip_adduction_r	hip_rotation_r	knee_angle_r	knee_angle_r_beta	ankle_angle_r	subtalar_angle_r	mtp_angle_r	hip_flexion_l	hip_adduction_l	hip_rotation_l	knee_angle_l	knee_angle_l_beta	ankle_angle_l	subtalar_angle_l	mtp_angle_l	lumbar_extension	lumbar_bending	lumbar_rotation	arm_flex_r	arm_add_r	arm_rot_r	elbow_flex_r	pro_sup_r	wrist_flex_r	wrist_dev_r	arm_flex_l	arm_add_l	arm_rot_l	elbow_flex_l	pro_sup_l	wrist_flex_l	wrist_dev_l
     41.45664286	     -8.11734288	     -7.82348818	      0.50723600	      0.98145057	      0.91327050	      0.48025962	      2.10035263	      5.14027034	    -14.47062171	      9.25636365	      9.25636365	     16.93889806	      7.67818800	     -2.09993753	     36.04589570	     -9.48355636	      1.89659467	     23.23807074	     23.23807074	      4.32603773	    -12.73998110	      9.06763176	    -10.02825227	      6.67940206	      4.79025074	     47.97380067	    -13.15491359	      2.76447788	    103.49774716	     44.36962968	      0.00000000	      0.00000000	    -19.71616776	     -7.25019101	      9.50361838	     31.75110637	     44.21950340	      0.00000000	      0.00000000
     41.46828571	     -8.11360627	     -7.70253088	      0.30705684	      0.98301811	      0.91235496	      0.47790264	      1.44504352	      4.82025476	    -14.22693105	      9.33044875	      9.33044875	     17.29279783	      7.78565911	     -2.07496922	     35.57128538	     -9.37328567	      1.25613321	     23.67365792	     23.67365792	      3.90054449	    -13.11263518	      8.88803530	     -9.62765108	      6.52825520	      4.75867907	     48.79960985	    -12.77785446	      2.88107487	    104.39242085	     44.34536386	      0.00000000	      0.00000000	    -20.18163592	     -7.12316440	      9.57600274	     31.53371374	     44.21133480	      0.00000000	      0.00000000
     41.47992857	     -8.00388511	     -7.56055271	      0.19417922	      0.98439067	      0.91181935	      0.47528499	      0.85792433	      4.41658301	    -14.08195388	      9.71956887	      9.71956887	     17.65726398	      7.76131501	     -2.01807164	     35.06981681	     -9.19499507	      0.81484077	     24.28486083	     24.28486083	      3.61698425	    -13.45007147	      8.39753026	     -9.46700380	      6.40865725	      4.48205654	     49.52934175	    -12.22709545	      3.12593144	    105.70125523	     44.30512023	      0.00000000	      0.00000000	    -20.43208735	     -6.98496233	      9.66603599	     31.29394551	     44.20688796	      0.00000000	      0.00000000
     41.49157143	     -8.00320242	     -7.40915307	      0.08773559	      0.98542487	      0.91146837	      0.47256761	      0.66923134	      3.92126822	    -13.92809720	     10.58896935	     10.58896935	     18.01331380	      7.63147399	     -1.86531691	     34.71362434	     -9.00219298	      0.41582860	     24.92337156	     24.92337156	      3.37012316	    -13.71982259	      7.40773019	     -9.26230164	      6.28767314	      4.16038308	     49.90312509	    -11.80493305	      3.45466541	    107.51753853	     44.25112608	      0.00000000	      0.00000000	    -20.41740081	     -6.83890258	      9.77864007	     30.90056196	     44.21506914	      0.00000000	      0.00000000
     41.50321429	     -7.89347402	     -7.25389644	      0.01320956	      0.98629231	      0.91158267	      0.46976152	      0.51838420	      3.38634757	    -13.80214778	     11.70818853	     11.70818853	     18.23762921	      7.31962562	     -1.90509833	     34.29519172	     -8.77396020	      0.24287372	     25.67764847	     25.67764847	      3.56101579	    -13.93845149	      6.69170729	     -9.20322277	      6.08205208	      4.10921238	     50.19553928	    -11.60050029	      3.55616458	    108.74732939	     44.21952463	      0.00000000	      0.00000000	    -20.17852291	     -6.75143470	      9.86328515	     30.55687642	     44.22415097	      0.00000000	      0.00000000
     41.51485714	     -7.97734586	     -7.06220196	     -0.08089316	      0.98666380	      0.91186845	      0.46683170	      0.92042619	      2.72317236	    -13.62212925	     13.38425458	     13.38425458	     18.29189518	      6.79781448	     -2.09497580	     34.05191820	     -8.51392109	      0.00970077	     26.31367950	     26.31367950	      3.86385545	    -13.94163592	      5.99187897	     -9.04042435	      5.82687417	      4.03362951	     50.06993139	    -11.56405368	      3.60539616	    110.41887096	     44.17943268	      0.00000000	      0.00000000	    -19.52125513	     -6.64934382	      9.99728579	     29.96873281	     44.24241810	      0.00000000	      0.00000000
     41.52650000	     -7.90030049	     -6.91957368	     -0.15640045	      0.98697013	      0.91265199	      0.46380735	      1.29774923	      2.07926676	    -13.42913020	     15.31029464	     15.31029464	     18.19914173	      6.14354777	     -2.54364507	     33.61875190	     -8.29153055	     -0.22540998	     26.91197213	     26.91197213	      4.45779174	    -13.93525041	      5.55844721	     -9.04409625	      5.72063896	      4.03971888	     49.73060499	    -11.65045193	      3.54735113	    111.79893802	     44.15093580	      0.00000000	      0.00000000	    -18.71313736	     -6.64729043	     10.12239737	     29.37041998	     44.26334421	      0.00000000	      0.00000000
     41.53814286	     -7.79521237	     -6.81018948	     -0.27361669	      0.98706655	      0.91379365	      0.46082762	      1.87111522	      1.42567372	    -13.22253856	     17.59332936	     17.59332936	     17.86801438	      5.40490632	     -3.12233532	     33.06999171	     -8.11849164	     -0.47860782	     27.34640842	     27.34640842	      5.21118238	    -13.83245092	      5.23951356	     -9.14910170	      5.58866759	      3.95659544	     49.35383928	    -11.61324512	      3.55951059	    112.81297580	     44.12620308	      0.00000000	      0.00000000	    -17.89412873	     -6.64800453	     10.20519354	     29.02571180	     44.28074769	      0.00000000	      0.00000000
